<?xml version="1.0" encoding="UTF-8" standalone="no"?>
<!-- Created with Inkscape (http://www.inkscape.org/) -->

<svg
   width="1920"
   height="1080"
   viewBox="0 0 508 285.75"
   version="1.1"
   id="svg5"
   inkscape:version="1.1.2 (0a00cf5339, 2022-02-04)"
   sodipodi:docname="banner.svg"
   xmlns:inkscape="http://www.inkscape.org/namespaces/inkscape"
   xmlns:sodipodi="http://sodipodi.sourceforge.net/DTD/sodipodi-0.dtd"
   xmlns="http://www.w3.org/2000/svg"
   xmlns:svg="http://www.w3.org/2000/svg">
  <sodipodi:namedview
     id="namedview7"
     pagecolor="#ffffff"
     bordercolor="#666666"
     borderopacity="1.0"
     inkscape:pageshadow="2"
     inkscape:pageopacity="0.0"
     inkscape:pagecheckerboard="0"
     inkscape:document-units="mm"
     showgrid="false"
     units="px"
     showguides="false"
     inkscape:zoom="0.38796647"
     inkscape:cx="835.12372"
     inkscape:cy="494.88813"
     inkscape:window-width="1920"
     inkscape:window-height="1043"
     inkscape:window-x="0"
     inkscape:window-y="0"
     inkscape:window-maximized="1"
     inkscape:current-layer="layer1"
     inkscape:snap-page="true"
     inkscape:snap-object-midpoints="true"
     inkscape:snap-center="true"
     inkscape:snap-bbox="true"
     inkscape:snap-bbox-midpoints="true"
     inkscape:bbox-paths="true"
     inkscape:bbox-nodes="true"
     inkscape:snap-bbox-edge-midpoints="true"
     inkscape:snap-global="true"
     inkscape:object-paths="true" />
  <defs
     id="defs2" />
  <g
     inkscape:label="Layer 1"
     inkscape:groupmode="layer"
     id="layer1">
    <rect
       style="fill:#ffffff;fill-rule:evenodd;stroke:#f9f9f9;stroke-width:4.20399;stroke-linecap:round;stroke-linejoin:round;stroke-opacity:0.998321"
       id="rect6201"
       width="508"
       height="285.75"
       x="0"
       y="0" />
    <g
       aria-label="CompRetty"
       id="text4412"
       style="font-weight:bold;font-size:71.465px;line-height:1.25;-inkscape-font-specification:'sans-serif Bold';stroke-width:0.372214">
      <path
         d="m 50.860828,166.06541 q -7.217964,0 -11.220004,-1.00051 -4.00204,-1.00051 -6.217455,-4.43083 -2.215415,-3.50178 -2.215415,-10.64828 v -35.7325 q 0,-7.1465 2.215415,-10.57682 2.215415,-3.50178 6.217455,-4.502292 4.00204,-1.00051 11.220004,-1.00051 h 26.799374 v 31.087272 h -8.933125 q -1.786624,0 -1.786624,1.78663 0,1.78662 1.786624,1.78662 h 8.933125 v 33.23122 z"
         style="font-family:CubeFarm_Latin;-inkscape-font-specification:'CubeFarm_Latin Bold';fill:#ff0000;fill-opacity:1"
         id="path9634" />
      <path
         d="m 98.956691,167.13739 q -9.14752,0 -14.007139,-4.78816 -4.788155,-4.85962 -4.788155,-14.00713 v -7.43236 q 0,-9.14752 4.788155,-13.93568 4.859619,-4.85962 14.007139,-4.85962 h 7.503829 q 9.14751,0 13.93567,4.85962 4.78815,4.78816 4.78815,13.93568 v 7.43236 q 0,9.14751 -4.78815,14.00713 -4.78816,4.78816 -13.93567,4.78816 z m 3.716179,-20.72485 q 0.78612,0 1.28637,-0.50025 0.50026,-0.57172 0.50026,-1.28637 0,-0.78612 -0.50026,-1.28637 -0.50025,-0.50026 -1.28637,-0.50026 -0.71465,0 -1.28637,0.50026 -0.50025,0.50025 -0.50025,1.28637 0,0.71465 0.50025,1.28637 0.57172,0.50025 1.28637,0.50025 z"
         style="font-family:CubeFarm_Latin;-inkscape-font-specification:'CubeFarm_Latin Bold';fill:#ff0000;fill-opacity:1"
         id="path9636" />
      <path
         d="m 127.68559,123.18642 h 53.59875 q 8.71873,0 13.29249,4.57376 4.57376,4.57376 4.57376,13.29249 v 25.01274 h -21.4395 v -8.93312 q 0,-1.78663 -1.78662,-1.78663 -1.78663,0 -1.78663,1.78663 v 8.93312 h -21.4395 v -8.93312 q 0,-1.78663 -1.78662,-1.78663 -1.78663,0 -1.78663,1.78663 v 8.93312 h -21.4395 z"
         style="font-family:CubeFarm_Latin;-inkscape-font-specification:'CubeFarm_Latin Bold';fill:#ff0000;fill-opacity:1"
         id="path9638" />
      <path
         d="m 202.72379,123.18642 h 28.586 q 8.71873,0 13.29249,4.57376 4.57376,4.57376 4.57376,13.29249 v 7.1465 q 0,8.64726 -4.57376,13.29248 -4.57376,4.57376 -13.29249,4.57376 h -3.57325 v 3.57325 q 0,8.71873 -4.57376,13.29249 -4.57376,4.57376 -13.29249,4.57376 h -7.1465 z m 23.22613,23.22612 q 1.78662,0 1.78662,-1.78662 0,-1.78663 -1.78662,-1.78663 h -1.78663 v 3.57325 z"
         style="font-family:CubeFarm_Latin;-inkscape-font-specification:'CubeFarm_Latin Bold';fill:#ff0000;fill-opacity:1"
         id="path9640" />
      <path
         d="m 251.67727,98.173668 h 44.66562 q 7.21797,0 11.22001,1.00051 4.00204,1.000512 6.21745,4.502292 2.21542,3.43032 2.21542,10.57682 v 5.35988 q 0,5.14548 -0.64319,8.00408 -0.57172,2.8586 -2.93006,4.50229 2.35834,1.6437 2.93006,4.5023 0.64319,2.8586 0.64319,8.00408 v 21.43949 h -30.37263 v -7.1465 q 0,-1.4293 -0.21439,-2.07248 -0.14293,-0.71465 -0.92905,-1.07198 -0.71465,-0.42879 -2.42981,-0.42879 v 10.71975 h -30.37262 z m 32.15925,30.372622 q 1.78662,0 1.78662,-1.78662 0,-1.78663 -1.78662,-1.78663 h -1.78663 v 3.57325 z"
         style="font-family:CubeFarm_Latin;-inkscape-font-specification:'CubeFarm_Latin Bold';fill:#ffd500;fill-opacity:1"
         id="path9642" />
      <path
         d="m 336.36319,166.20834 q -8.64726,0 -13.29249,-4.57376 -4.57376,-4.64522 -4.57376,-13.29248 v -8.36141 q 0,-8.71873 4.57376,-13.29249 4.64523,-4.57376 13.29249,-4.57376 h 8.21848 q 8.71872,0 13.29248,4.57376 4.57376,4.57376 4.57376,13.29249 v 10.14803 h -23.22612 q 0.0715,2.07249 0.92905,2.8586 0.85758,0.71465 2.6442,0.71465 h 19.65287 v 12.50637 z m 6.43185,-28.94332 v -1.78662 q 0,-1.78663 -1.78662,-1.78663 -1.78663,0 -1.78663,1.78663 v 1.78662 z"
         style="font-family:CubeFarm_Latin;-inkscape-font-specification:'CubeFarm_Latin Bold';fill:#ffd500;fill-opacity:1"
         id="path9644" />
      <path
         d="m 383.88741,166.06541 q -6.93211,0 -10.64829,-3.64471 -3.64471,-3.71618 -3.64471,-10.64828 v -8.93313 h -3.57325 v -19.65287 h 3.57325 v -14.293 h 21.4395 v 14.293 h 3.57324 v 19.65287 h -3.57324 q 0,1.57223 1.0005,2.57274 1.00051,1.00051 2.57274,1.00051 v 19.65287 z"
         style="font-family:CubeFarm_Latin;-inkscape-font-specification:'CubeFarm_Latin Bold';fill:#ffd500;fill-opacity:1"
         id="path9646" />
      <path
         d="m 416.04655,166.06541 q -6.9321,0 -10.64828,-3.64471 -3.64471,-3.71618 -3.64471,-10.64828 v -8.93313 h -3.57325 v -19.65287 h 3.57325 v -14.293 h 21.43949 v 14.293 h 3.57325 v 19.65287 h -3.57325 q 0,1.57223 1.00051,2.57274 1.00051,1.00051 2.57274,1.00051 v 19.65287 z"
         style="font-family:CubeFarm_Latin;-inkscape-font-specification:'CubeFarm_Latin Bold';fill:#ffd500;fill-opacity:1"
         id="path9648" />
      <path
         d="m 476.79173,123.18642 v 46.52371 q 0,8.71873 -4.57376,13.29249 -4.57376,4.57376 -13.29249,4.57376 h -7.1465 v -21.51097 h -3.57325 q -8.64726,0 -13.29249,-4.57376 -4.57375,-4.64522 -4.57375,-13.29248 v -25.01275 h 21.43949 v 8.93312 q 0,1.78663 1.78663,1.78663 1.78662,0 1.78662,-1.78663 v -8.93312 z"
         style="font-family:CubeFarm_Latin;-inkscape-font-specification:'CubeFarm_Latin Bold';fill:#ffd500;fill-opacity:1"
         id="path9650" />
      <circle
         style="fill:#ffffff;fill-opacity:1;fill-rule:evenodd;stroke:none;stroke-width:4.60151;stroke-linecap:round;stroke-linejoin:round;stroke-opacity:0.998321"
         id="path12219"
         cx="267.39081"
         cy="113.97599"
         r="13.298264" />
      <circle
         style="font-weight:bold;font-size:71.465px;line-height:1.25;-inkscape-font-specification:'sans-serif Bold';fill:#000000;fill-opacity:1;fill-rule:evenodd;stroke:none;stroke-width:3.29329;stroke-linecap:round;stroke-linejoin:round;stroke-opacity:0.998321"
         id="path12219-6"
         cx="271.17151"
         cy="113.97599"
         r="9.5175514" />
      <circle
         style="font-weight:bold;font-size:71.465px;line-height:1.25;-inkscape-font-specification:'sans-serif Bold';fill:#ffffff;fill-opacity:1;fill-rule:evenodd;stroke:none;stroke-width:4.60151;stroke-linecap:round;stroke-linejoin:round;stroke-opacity:0.998321"
         id="path12219-3"
         cx="299.79575"
         cy="113.97599"
         r="13.298264" />
      <circle
         style="font-weight:bold;font-size:71.465px;line-height:1.25;-inkscape-font-specification:'sans-serif Bold';fill:#000000;fill-opacity:1;fill-rule:evenodd;stroke:none;stroke-width:3.29329;stroke-linecap:round;stroke-linejoin:round;stroke-opacity:0.998321"
         id="path12219-6-5"
         cx="303.57645"
         cy="113.97599"
         r="9.5175514" />
    </g>
    <path
       style="fill:#ff0000;fill-opacity:1;stroke:none;stroke-width:0.264583px;stroke-linecap:butt;stroke-linejoin:miter;stroke-opacity:1"
       d="m 282.86429,98.173666 -43.52106,0 c 0,0 -1.16944,-10.094442 10.09444,-10.094442 l 33.51555,0 z"
       id="path15524"
       sodipodi:nodetypes="ccscc" />
    <path
       style="fill:#00aaff;stroke:none;stroke-width:0.264583px;stroke-linecap:butt;stroke-linejoin:miter;stroke-opacity:1;fill-opacity:1"
       d="m 251.67727,88.1773 c 0,0 -0.0669,-15.786859 15.78684,-15.786859 15.85378,0 15.48911,15.688781 15.48911,15.688781"
       id="path15528" />
  </g>
</svg>
