<?xml version="1.0" encoding="UTF-8" standalone="no"?>
<!-- Created with Inkscape (http://www.inkscape.org/) -->

<svg
   width="512"
   height="512"
   viewBox="0 0 135.46667 135.46667"
   version="1.1"
   id="svg5"
   inkscape:version="1.1.2 (0a00cf5339, 2022-02-04)"
   sodipodi:docname="logo.svg"
   inkscape:export-filename="/home/gleam/Gits/CompRetty/assets/logo.png"
   inkscape:export-xdpi="96"
   inkscape:export-ydpi="96"
   xmlns:inkscape="http://www.inkscape.org/namespaces/inkscape"
   xmlns:sodipodi="http://sodipodi.sourceforge.net/DTD/sodipodi-0.dtd"
   xmlns="http://www.w3.org/2000/svg"
   xmlns:svg="http://www.w3.org/2000/svg">
  <sodipodi:namedview
     id="namedview7"
     pagecolor="#ffffff"
     bordercolor="#666666"
     borderopacity="1.0"
     inkscape:pageshadow="2"
     inkscape:pageopacity="0.0"
     inkscape:pagecheckerboard="0"
     inkscape:document-units="mm"
     showgrid="false"
     units="px"
     showguides="false"
     inkscape:zoom="0.54866744"
     inkscape:cx="-27.338965"
     inkscape:cy="202.30834"
     inkscape:window-width="1920"
     inkscape:window-height="1043"
     inkscape:window-x="0"
     inkscape:window-y="0"
     inkscape:window-maximized="1"
     inkscape:current-layer="text4412"
     inkscape:snap-page="true"
     inkscape:snap-object-midpoints="true"
     inkscape:snap-center="true"
     inkscape:snap-bbox="true"
     inkscape:snap-bbox-midpoints="true"
     inkscape:bbox-paths="true"
     inkscape:bbox-nodes="true"
     inkscape:snap-bbox-edge-midpoints="true"
     inkscape:snap-global="true"
     inkscape:object-paths="true"
     width="512px" />
  <defs
     id="defs2" />
  <g
     inkscape:label="Layer 1"
     inkscape:groupmode="layer"
     id="layer1">
    <g
       aria-label="CompRetty"
       id="text4412"
       style="font-weight:bold;font-size:71.465px;line-height:1.25;-inkscape-font-specification:'sans-serif Bold';stroke-width:0.372214">
      <rect
         style="fill:#ffffff;fill-opacity:1;fill-rule:evenodd;stroke:none;stroke-width:4.20399;stroke-linecap:round;stroke-linejoin:round;stroke-opacity:1"
         id="rect20779"
         width="135.46666"
         height="135.46666"
         x="0"
         y="0" />
      <path
         d="m 32.292305,102.90322 q -5.869767,0 -9.124308,-0.81364 -3.254524,-0.81363 -5.056146,-3.603222 Q 16.31023,95.638641 16.31023,89.826976 V 60.768665 q 0,-5.811653 1.801621,-8.601256 1.801622,-2.847708 5.056146,-3.661339 3.254541,-0.81364 9.124308,-0.81364 h 21.793738 v 25.280726 h -7.264582 q -1.452902,0 -1.452902,1.45292 0,1.452911 1.452902,1.452911 h 7.264582 v 27.024233 z"
         style="font-family:CubeFarm_Latin;-inkscape-font-specification:'CubeFarm_Latin Bold';fill:#ff0000;fill-opacity:1;stroke-width:0.302691"
         id="path9634" />
      <path
         d="m 58.522228,44.181073 h 40.915704 q 6.611988,0 10.278028,0.916512 3.66605,0.916514 5.69546,4.124301 2.02943,3.142326 2.02943,9.688839 v 4.90989 q 0,4.713489 -0.58919,7.332095 -0.52372,2.618605 -2.68407,4.124298 2.16035,1.505703 2.68407,4.124308 0.58919,2.618606 0.58919,7.332095 V 106.37294 H 89.618161 v -6.54651 q 0,-1.309302 -0.196391,-1.898484 -0.13093,-0.654651 -0.851051,-0.981982 -0.654652,-0.39279 -2.225815,-0.39279 v 9.819766 H 58.522228 Z m 29.459309,27.822679 q 1.636624,0 1.636624,-1.636624 0,-1.636633 -1.636624,-1.636633 h -1.636633 v 3.273257 z"
         style="font-family:CubeFarm_Latin;-inkscape-font-specification:'CubeFarm_Latin Bold';fill:#ffd500;fill-opacity:1;stroke-width:0.340965"
         id="path9642" />
      <circle
         style="fill:#ffffff;fill-opacity:1;fill-rule:evenodd;stroke:none;stroke-width:4.21519;stroke-linecap:round;stroke-linejoin:round;stroke-opacity:0.998321"
         id="path12219"
         cx="72.916527"
         cy="58.656708"
         r="12.181804" />
      <circle
         style="font-weight:bold;font-size:71.465px;line-height:1.25;-inkscape-font-specification:'sans-serif Bold';fill:#000000;fill-opacity:1;fill-rule:evenodd;stroke:none;stroke-width:3.0168;stroke-linecap:round;stroke-linejoin:round;stroke-opacity:0.998321"
         id="path12219-6"
         cx="76.379822"
         cy="58.656708"
         r="8.718502" />
      <circle
         style="font-weight:bold;font-size:71.465px;line-height:1.25;-inkscape-font-specification:'sans-serif Bold';fill:#ffffff;fill-opacity:1;fill-rule:evenodd;stroke:none;stroke-width:4.21519;stroke-linecap:round;stroke-linejoin:round;stroke-opacity:0.998321"
         id="path12219-3"
         cx="102.60088"
         cy="58.656708"
         r="12.181804" />
      <circle
         style="font-weight:bold;font-size:71.465px;line-height:1.25;-inkscape-font-specification:'sans-serif Bold';fill:#000000;fill-opacity:1;fill-rule:evenodd;stroke:none;stroke-width:3.0168;stroke-linecap:round;stroke-linejoin:round;stroke-opacity:0.998321"
         id="path12219-6-5"
         cx="106.06419"
         cy="58.656708"
         r="8.718502" />
    </g>
    <path
       style="fill:#ff0000;fill-opacity:1;stroke:none;stroke-width:0.24237px;stroke-linecap:butt;stroke-linejoin:miter;stroke-opacity:1"
       d="M 87.090931,44.181071 H 47.223696 c 0,0 -1.071259,-9.246959 9.246958,-9.246959 h 30.701741 z"
       id="path15524"
       sodipodi:nodetypes="ccscc" />
    <path
       style="fill:#00aaff;fill-opacity:1;stroke:none;stroke-width:0.24237px;stroke-linecap:butt;stroke-linejoin:miter;stroke-opacity:1"
       d="m 58.522228,35.023954 c 0,0 -0.06128,-14.461468 14.46145,-14.461468 14.522771,0 14.188717,14.371624 14.188717,14.371624"
       id="path15528" />
  </g>
</svg>
